<svg width="28" height="28" viewBox="0 0 28 28" fill="none" xmlns="http://www.w3.org/2000/svg">
<rect width="28" height="28" rx="14" fill="#EF3340" fill-opacity="0.15"/>
<path d="M7.33333 7.33334H8.49333C9.21333 7.33334 9.78 7.95334 9.72 8.66668L9.16666 15.3067C9.07333 16.3933 9.93332 17.3267 11.0267 17.3267H18.1267C19.0867 17.3267 19.9267 16.54 20 15.5867L20.36 10.5867C20.44 9.48001 19.6 8.58001 18.4867 8.58001H9.88" stroke="#EF3340" stroke-miterlimit="10" stroke-linecap="round" stroke-linejoin="round"/>
<path d="M16.8333 20.6667C17.2936 20.6667 17.6667 20.2936 17.6667 19.8333C17.6667 19.3731 17.2936 19 16.8333 19C16.3731 19 16 19.3731 16 19.8333C16 20.2936 16.3731 20.6667 16.8333 20.6667Z" stroke="#EF3340" stroke-miterlimit="10" stroke-linecap="round" stroke-linejoin="round"/>
<path d="M11.5 20.6667C11.9602 20.6667 12.3333 20.2936 12.3333 19.8333C12.3333 19.3731 11.9602 19 11.5 19C11.0398 19 10.6667 19.3731 10.6667 19.8333C10.6667 20.2936 11.0398 20.6667 11.5 20.6667Z" stroke="#EF3340" stroke-miterlimit="10" stroke-linecap="round" stroke-linejoin="round"/>
<path d="M12 11.3333H20" stroke="#EF3340" stroke-miterlimit="10" stroke-linecap="round" stroke-linejoin="round"/>
</svg>
